<mxfile host="app.diagrams.net" agent="Mozilla/5.0 (Windows NT 10.0; Win64; x64) AppleWebKit/537.36 (KHTML, like Gecko) Chrome/135.0.0.0 Safari/537.36" version="26.2.9">
  <diagram name="Page-1" id="d-naQCobuuhmk1wnO0D4">
    <mxGraphModel dx="874" dy="492" grid="1" gridSize="10" guides="1" tooltips="1" connect="1" arrows="1" fold="1" page="1" pageScale="1" pageWidth="850" pageHeight="1100" math="0" shadow="0">
      <root>
        <mxCell id="0" />
        <mxCell id="1" parent="0" />
        <mxCell id="hqw912h2tlTdj4AO1MUH-4" value="&lt;font style=&quot;font-size: 14px;&quot;&gt;User Action&lt;/font&gt;" style="html=1;dashed=0;whiteSpace=wrap;" vertex="1" parent="1">
          <mxGeometry x="130" y="290" width="100" height="50" as="geometry" />
        </mxCell>
        <mxCell id="hqw912h2tlTdj4AO1MUH-5" value="&lt;span style=&quot;font-size: 14px;&quot;&gt;Packet&lt;/span&gt;" style="html=1;dashed=0;whiteSpace=wrap;" vertex="1" parent="1">
          <mxGeometry x="600" y="290" width="100" height="50" as="geometry" />
        </mxCell>
        <mxCell id="hqw912h2tlTdj4AO1MUH-6" value="&lt;span style=&quot;font-size: 14px;&quot;&gt;Export File&lt;/span&gt;" style="html=1;dashed=0;whiteSpace=wrap;" vertex="1" parent="1">
          <mxGeometry x="130" y="470" width="100" height="50" as="geometry" />
        </mxCell>
        <mxCell id="hqw912h2tlTdj4AO1MUH-7" value="&lt;span style=&quot;font-size: 14px;&quot;&gt;Packet Details&lt;/span&gt;" style="html=1;dashed=0;whiteSpace=wrap;" vertex="1" parent="1">
          <mxGeometry x="610" y="525" width="100" height="50" as="geometry" />
        </mxCell>
        <mxCell id="hqw912h2tlTdj4AO1MUH-8" value="" style="edgeStyle=entityRelationEdgeStyle;fontSize=12;html=1;endArrow=ERzeroToMany;startArrow=ERzeroToOne;rounded=0;exitX=1;exitY=0.5;exitDx=0;exitDy=0;entryX=0;entryY=0.5;entryDx=0;entryDy=0;" edge="1" parent="1" source="hqw912h2tlTdj4AO1MUH-4" target="hqw912h2tlTdj4AO1MUH-5">
          <mxGeometry width="100" height="100" relative="1" as="geometry">
            <mxPoint x="380" y="390" as="sourcePoint" />
            <mxPoint x="480" y="290" as="targetPoint" />
          </mxGeometry>
        </mxCell>
      </root>
    </mxGraphModel>
  </diagram>
</mxfile>
